<svg xmlns="http://www.w3.org/2000/svg" xml:space="preserve" viewBox="0 0 128.5 74.4"><path fill="#e8b942" d="M35.2 22.4 57.6 7.9c1.9-1.2 4.3-1.2 6.2 0l22.4 14.5c2.1 1.4 1.1 4.6-1.4 4.6H36.5c-2.5 0-3.5-3.2-1.3-4.6zm52.2 41.1c0-2.2-1.6-3.9-3.7-3.9h-46c-2 0-3.7 1.7-3.7 3.9s1.6 3.9 3.7 3.9h46.1c2 0 3.6-1.7 3.6-3.9zM64.6 50.1V37c0-2.2-1.7-3.9-3.9-3.9s-3.9 1.7-3.9 3.9v13.1c0 2.2 1.7 3.9 3.9 3.9s3.9-1.7 3.9-3.9zm-17.4 0V37c0-2.2-1.7-3.9-3.9-3.9s-3.9 1.7-3.9 3.9v13.1c0 2.2 1.7 3.9 3.9 3.9s3.9-1.7 3.9-3.9zm34.8 0V37c0-2.2-1.7-3.9-3.9-3.9s-3.9 1.7-3.9 3.9v13.1c0 2.2 1.7 3.9 3.9 3.9s3.9-1.7 3.9-3.9zm12.7-22.2 12.5-8c1.1-.7 2.4-.7 3.5 0l12.5 8c1.2.8.6 2.6-.8 2.6h-27c-1.4 0-1.9-1.8-.7-2.6zm29 22.8c0-1.2-.9-2.2-2-2.2H96.1c-1.1 0-2 1-2 2.2s.9 2.2 2 2.2h25.6c1.1 0 2-1 2-2.2zM111 43.3V36c0-1.2-1-2.2-2.2-2.2-1.2 0-2.2 1-2.2 2.2v7.3c0 1.2 1 2.2 2.2 2.2 1.3 0 2.2-1 2.2-2.2zm-9.6 0V36c0-1.2-1-2.2-2.2-2.2-1.2 0-2.2 1-2.2 2.2v7.3c0 1.2 1 2.2 2.2 2.2 1.2 0 2.2-1 2.2-2.2zm19.3 0V36c0-1.2-1-2.2-2.2-2.2-1.2 0-2.2 1-2.2 2.2v7.3c0 1.2 1 2.2 2.2 2.2 1.2 0 2.2-1 2.2-2.2zM5.3 25.2 16 18.4c.9-.6 2.1-.6 3 0l10.6 6.9c1 .6.5 2.2-.6 2.2H6c-1.2-.1-1.7-1.6-.7-2.3zm24.8 19.5c0-1-.8-1.8-1.7-1.8H6.5c-1 0-1.7.8-1.7 1.8s.8 1.8 1.7 1.8h21.9c.9.1 1.7-.7 1.7-1.8zm-10.8-6.3v-6.2c0-1-.8-1.8-1.8-1.8s-1.8.8-1.8 1.8v6.2c0 1 .8 1.8 1.8 1.8s1.8-.8 1.8-1.8zm-8.2 0v-6.2c0-1-.8-1.8-1.8-1.8s-1.8.8-1.8 1.8v6.2c0 1 .8 1.8 1.8 1.8s1.8-.8 1.8-1.8zm16.4 0v-6.2c0-1-.8-1.8-1.8-1.8s-1.8.8-1.8 1.8v6.2c0 1 .8 1.8 1.8 1.8s1.8-.8 1.8-1.8z"/></svg>