<svg xmlns="http://www.w3.org/2000/svg" xml:space="preserve" viewBox="0 0 300 300"><path fill="#404040" d="M253.7 123.2c-2.2.2-3.7 2.1-3.7 4.3v51.4h-94V90.6c0-2.3-1.9-4.1-4.1-4.1-2.3 0-4.1 1.9-4.1 4.1v88.3h-94v-51.4c0-2.2-1.6-4.1-3.7-4.3-2.5-.2-4.5 1.7-4.5 4.1v140.4c0 8.8 7.2 16 16 16h180.8c8.8 0 16-7.2 16-16V127.3c-.1-2.4-2.2-4.4-4.7-4.1zm-106 152.2H61.4c-4.3 0-7.7-3.5-7.7-7.7v-80.5h94v88.2zm102.3-7.7c0 4.3-3.5 7.7-7.7 7.7H156v-88.3h94v80.6zm-65-127.5c-2.8 0-5-2.2-5-5v-1.1c0-2.8 2.2-5 5-5h38.3c2.8 0 5 2.2 5 5v1.1c0 2.8-2.2 5-5 5H185zm-5 75.4v-1.1c0-2.8 2.2-5 5-5h38.3c2.8 0 5 2.2 5 5v1.1c0 2.8-2.2 5-5 5H185c-2.7.1-5-2.2-5-5zm0 25.6V240c0-2.8 2.2-5 5-5h38.3c2.8 0 5 2.2 5 5v1.1c0 2.8-2.2 5-5 5H185c-2.7.1-5-2.2-5-4.9zm-96.8-3.7 9.6-9.6-9.6-9.6c-2-2-2-5.1 0-7.1l.8-.8c2-2 5.1-2 7.1 0l9.6 9.6 9.6-9.6c2-2 5.1-2 7.1 0l.8.8c2 2 2 5.1 0 7.1l-9.6 9.6 9.6 9.6c2 2 2 5.1 0 7.1l-.8.8c-2 2-5.1 2-7.1 0l-9.6-9.6-9.6 9.6c-2 2-5.1 2-7.1 0l-.8-.8c-1.9-2-1.9-5.2 0-7.1zm23.1-122v13.6h13.6c2.8 0 5 2.2 5 5v1.1c0 2.8-2.2 5-5 5h-13.6v13.6c0 2.8-2.2 5-5 5h-1.1c-2.8 0-5-2.2-5-5v-13.6H81.6c-2.8 0-5-2.2-5-5v-1.1c0-2.8 2.2-5 5-5h13.6v-13.6c0-2.8 2.2-5 5-5h1.1c2.7 0 5 2.3 5 5zm176.5 4.3c-1.4 1.8-3.9 2.2-5.8.9L153.6 31.6c-1.1-.8-2.5-.8-3.5 0L23 120.7c-.7.5-1.6.8-2.4.8-1.3 0-2.6-.6-3.4-1.7-1.3-1.8-.9-4.4 1-5.7L149.5 22c1.5-1 3.4-1 4.8 0l127.6 92.1c1.8 1.3 2.2 3.9.9 5.7z"/></svg>