<?xml version="1.0" encoding="utf-8"?>
<!-- Generator: Adobe Illustrator 19.0.0, SVG Export Plug-In . SVG Version: 6.00 Build 0)  -->
<svg version="1.1" id="Layer_1" xmlns="http://www.w3.org/2000/svg" xmlns:xlink="http://www.w3.org/1999/xlink" x="0px" y="0px"
	 viewBox="0 0 100 100" style="enable-background:new 0 0 100 100;" xml:space="preserve">
<style type="text/css">
	.st0{fill:none;stroke:#AAA8AA; stroke-width:2; stroke-miterlimit:10;}
	.st1{fill:#4AB64C;}
</style>
<g id="XMLID_1_">
	<path id="XMLID_27_" class="st0" d="M53.9,84.3h-38c-4.3,0-7.8-3.8-7.8-8.5V12.6c0-4.7,3.5-8.5,7.8-8.5h48.3c4.3,0,7.8,3.8,7.8,8.5
		v43.3"/>
	<path id="XMLID_23_" class="st0" d="M8.1,17.9c0-4.7,3.5-8.5,7.8-8.5h48.3c4.3,0,7.8,3.8,7.8,8.5"/>
	<circle id="XMLID_2_" class="st0" cx="72" cy="75.9" r="20"/>
	<polygon id="XMLID_5_" class="st1" points="75.3,84.1 75.3,71.5 68.6,71.5 68.6,84.1 61.6,84.1 66.8,89.3 72,94.5 77.2,89.3 
		82.3,84.1 	"/>
</g>
</svg>
